<?xml version="1.0" encoding="utf-8"?>
<!-- Generator: Adobe Illustrator 23.0.6, SVG Export Plug-In . SVG Version: 6.00 Build 0)  -->
<svg version="1.1" id="Layer_1" xmlns="http://www.w3.org/2000/svg" xmlns:xlink="http://www.w3.org/1999/xlink" x="0px" y="0px"
	 viewBox="0 0 240 113.4" style="enable-background:new 0 0 240 113.4;" xml:space="preserve">
<style type="text/css">
	.st0{fill:#FFFFFF;}
</style>
<g>
	<path class="st0" d="M170.9,51.2c0-28.2-23-51.2-51.2-51.2C91.5,0,68.5,23,68.5,51.2v0.5h102.4V51.2z M168.8,50.6l-22.2-21.9
		l-5.3,3.1l-10.6-8.4l-6.5,5.9l-2.5-2l-8.2,4.5L125,50.6h-2l-16.8-27.2l-9.9,12.4l16,14.8h-2.8L91,33.9l-6.9,5.8l-2-1L69.6,50.6
		C69.9,23.2,92.2,1,119.7,1s49.9,22.2,50.2,49.6H168.8z M109.5,33.2l-1.9,1.5l-1.2-2.7l-1.8,0.2l-0.9-1.6h-1.1l3.1-3.7L109.5,33.2z"
		/>
	<polygon class="st0" points="0.1,91.9 0.1,92.2 239.5,92.2 239.5,91.9 	"/>
	<g>
		<g>
			<path class="st0" d="M215.7,85c-0.1,0.5-0.3,1-0.5,1.5h2.5h2.5c-0.2-0.5-0.4-0.9-0.5-1.4c-0.1-0.5-0.1-1.2-0.1-2V71.8
				c0-0.8,0-1.5,0.1-2c0.1-0.5,0.2-1,0.5-1.5h-2.5h-2.5c0.2,0.5,0.4,0.9,0.5,1.5c0.1,0.5,0.1,1.2,0.1,2V83
				C215.8,83.8,215.8,84.5,215.7,85z"/>
			<path class="st0" d="M172.5,72.5c-0.7-1-1.3-1.7-1.7-2.4c-0.4-0.6-0.8-1.2-1.1-1.8h-2.8h-2.8l2.6,3.1V83c0,0.8,0,1.5-0.1,2
				c-0.1,0.5-0.3,1-0.5,1.5h2.5h2.5c-0.2-0.5-0.4-0.9-0.5-1.5c-0.1-0.5-0.1-1.2-0.1-2v-7.5l5.1,7c0.7,0.9,1.2,1.7,1.7,2.5
				c0.5,0.8,0.7,1.3,0.7,1.5h2.2h2.2c-0.1-0.3-0.2-1-0.3-2.1c-0.1-1.1-0.1-2.2-0.1-3.4v-9.1c0-0.8,0-1.4,0.1-2
				c0.1-0.5,0.3-1,0.5-1.5h-2.5h-2.5c0.2,0.5,0.4,0.9,0.5,1.5c0.1,0.5,0.1,1.2,0.1,2v8.3L172.5,72.5z"/>
			<path class="st0" d="M195.3,85.3c-0.3,0.5-0.5,0.9-0.7,1.2h2.2h2.2c0-0.5,0-1,0-1.4c0.1-0.4,0.2-0.9,0.4-1.3l1-2.3h6.7l0.9,2.3
				c0.2,0.6,0.4,1.1,0.5,1.5c0.1,0.4,0.1,0.8,0.1,1.2h2.5h2.5c-0.3-0.4-0.6-0.9-0.9-1.4c-0.3-0.5-0.6-1.2-1-2l-5.2-11.8
				c-0.3-0.6-0.5-1.2-0.7-1.7c-0.2-0.5-0.3-0.9-0.3-1.1H204h-1.5c0,0.2-0.1,0.5-0.3,1.1c-0.2,0.5-0.4,1.1-0.7,1.7l-5.2,11.8
				C195.9,84,195.5,84.8,195.3,85.3z M203.9,73l2.2,5.5h-4.5L203.9,73z"/>
			<path class="st0" d="M162.5,69.8c0.1-0.5,0.2-1,0.5-1.5h-2.5H158c0.2,0.5,0.4,0.9,0.5,1.5c0.1,0.5,0.1,1.2,0.1,2v8
				c0,1.3-0.3,2.3-0.8,3c-0.6,0.7-1.4,1.1-2.4,1.1c-1.1,0-2-0.4-2.7-1.2c-0.6-0.8-0.9-2-0.9-3.5v-7.4h0c0-0.8,0-1.5,0.1-2
				c0.1-0.5,0.3-1,0.5-1.5h-2.5h-2.5c0.2,0.5,0.4,0.9,0.5,1.5c0.1,0.5,0.1,1.2,0.1,2v8c0,2.2,0.5,3.9,1.6,5.1
				c1.1,1.2,2.6,1.8,4.6,1.8c1.8,0,3.3-0.6,4.5-1.8l0.3-0.3v1.8h2h2c-0.2-0.5-0.4-0.9-0.5-1.4c-0.1-0.5-0.1-1.2-0.1-2V71.8
				C162.4,71,162.4,70.3,162.5,69.8z"/>
			<path class="st0" d="M189.2,71v12H189c0,0.8-0.1,1.4-0.2,1.9c-0.1,0.5-0.3,1-0.5,1.5h2.6h2.6c-0.3-0.5-0.4-1-0.5-1.5
				c-0.1-0.5-0.2-1.2-0.2-1.9V71c1.1,0,2.1,0.1,2.7,0.2c0.7,0.1,1.3,0.4,1.8,0.7l0.5-1.8l0.5-1.8h-7.4h-6.5l-0.4,1.8l-0.4,1.8
				c0.4-0.3,1.2-0.6,2.4-0.7C186.8,71.1,187.8,71,189.2,71z"/>
			<path class="st0" d="M126.1,65.8c0.3-0.9,0.8-2,1.5-3.4h-2.8h-2.9c-0.1,0.4-0.3,0.9-0.6,1.5c-0.3,0.6-0.9,1.3-1.6,2.2l-5.6,7.1
				l-5.4-7.1c-0.7-0.9-1.2-1.6-1.5-2.2c-0.3-0.5-0.5-1.1-0.6-1.5h-3.9h-3.9l2.9,3.3V82c0,1.1-0.1,1.9-0.2,2.6s-0.4,1.3-0.7,1.9h3.3
				h3.3c-0.3-0.6-0.5-1.3-0.7-1.9c-0.1-0.7-0.2-1.6-0.2-2.6V71.1l7.1,9.3l7.1-9v10.5c0,1.1-0.1,1.9-0.2,2.6
				c-0.1,0.7-0.4,1.3-0.7,1.9h3.4h3.4c-0.3-0.6-0.5-1.3-0.7-1.9c-0.1-0.7-0.2-1.6-0.2-2.6V68.3C125.7,67.5,125.8,66.7,126.1,65.8z"
				/>
			<path class="st0" d="M136.9,86.7c2.7,0,5-0.9,6.8-2.6c1.8-1.8,2.7-4,2.7-6.6c0-2.7-0.9-4.9-2.6-6.7s-3.8-2.7-6.4-2.7
				c-2.9,0-5.3,0.9-7.2,2.7c-1.9,1.8-2.9,4-2.9,6.7c0,2.7,0.9,4.9,2.7,6.7C131.9,85.8,134.2,86.7,136.9,86.7z M132.9,72.6
				c0.9-1.1,2.1-1.7,3.5-1.7c1.7,0,3.2,0.7,4.3,2c1.1,1.3,1.7,3,1.7,5c0,1.7-0.5,3.1-1.4,4.2c-1,1.2-2.1,1.8-3.5,1.8
				c-1.7,0-3.2-0.7-4.3-2c-1.1-1.3-1.7-3-1.7-5C131.5,75.2,132,73.8,132.9,72.6z"/>
			<path class="st0" d="M239.4,81v-9.1c0-0.8,0-1.4,0.1-2c0.1-0.5,0.2-1,0.5-1.5h-2.5H235c0.2,0.5,0.4,0.9,0.5,1.5
				c0.1,0.5,0.1,1.2,0.1,2v8.3l-5.7-7.7c-0.7-1-1.3-1.7-1.7-2.4c-0.4-0.6-0.8-1.2-1.1-1.8h-2.8h-2.8l2.6,3.1V83c0,0.8,0,1.5-0.1,2
				c-0.1,0.5-0.3,1-0.5,1.5h2.5h2.5c-0.2-0.5-0.4-0.9-0.5-1.5c-0.1-0.5-0.1-1.2-0.1-2v-7.5h0l5.1,7c0.7,0.9,1.2,1.7,1.7,2.5
				c0.5,0.8,0.7,1.3,0.7,1.5h2.2h2.2c-0.1-0.3-0.2-1-0.3-2.1C239.4,83.3,239.4,82.2,239.4,81z"/>
		</g>
		<g>
			<path class="st0" d="M86.8,71.9c0.5-0.8,0.9-1.5,1.2-2c0.4-0.5,0.8-1,1.2-1.5h-2.7h-2.7c0,0.5,0,1-0.1,1.4
				c-0.1,0.4-0.3,0.9-0.5,1.3l-1.8,3.7l-1.6-3.7c-0.3-0.6-0.5-1.2-0.6-1.6c-0.1-0.4-0.1-0.8-0.1-1.2h-2.9h-2.9
				c0.6,0.7,1.1,1.2,1.5,1.7s0.8,1.1,1.1,1.7l3.7,6.7c0,0,0,6.2-0.1,6.7s-0.3,1-0.5,1.5h2.2h2.6c-0.2-0.5-0.4-0.9-0.5-1.5
				c-0.1-0.5-0.1-1.2-0.1-2v-4.9L86.8,71.9z"/>
			<path class="st0" d="M57,84.9c-0.1,0.5-0.3,1-0.5,1.5H59h2.5c-0.2-0.5-0.4-0.9-0.5-1.5c-0.1-0.5-0.1-1.2-0.1-2l0-4.7l3,4.2
				c0.7,0.9,1.2,1.7,1.6,2.3c0.4,0.6,0.8,1.2,1.1,1.8h2.8h2.8c-0.3-0.3-0.8-0.6-1.2-1.2c-0.5-0.5-1.1-1.3-1.9-2.3l-5.2-6.6l4.1-4.6
				c1-1,1.7-1.8,2.2-2.3s1-0.9,1.3-1.1h-2.4h-2.3c-0.1,0.4-0.3,0.8-0.5,1.2c-0.3,0.4-0.7,0.9-1.2,1.5l-4.2,4.7v-4.1
				c0-0.8,0-1.5,0.1-2s0.3-1,0.5-1.5H59h-2.5c0.2,0.5,0.4,1,0.5,1.5s0.1,1.2,0.1,2v11.2C57.1,83.7,57.1,84.4,57,84.9z"/>
			<path class="st0" d="M48.1,86.7c1.1,0,2.1-0.1,2.9-0.3c0.8-0.2,1.8-0.5,2.9-1.1V82c-0.9,0.7-1.7,1.3-2.6,1.6
				c-0.8,0.3-1.8,0.5-2.8,0.5c-1.6,0-2.9-0.6-3.9-1.9c-1-1.3-1.6-2.8-1.6-4.7c0-1.9,0.6-3.5,1.7-4.7c1.1-1.3,2.5-1.9,4.1-1.9
				c0.9,0,1.7,0.1,2.4,0.3c0.7,0.2,1.5,0.6,2.4,1.2V69c-0.9-0.3-1.7-0.5-2.3-0.7c-0.6-0.1-1.3-0.2-2.1-0.2c-3,0-5.4,0.9-7.4,2.8
				c-2,1.8-2.9,4.1-2.9,6.9c0,2.6,0.9,4.7,2.6,6.4C43.2,85.9,45.4,86.7,48.1,86.7z"/>
			<path class="st0" d="M0.7,84.6c-0.1,0.7-0.4,1.3-0.7,1.9h3.4h3.4c-0.3-0.6-0.5-1.3-0.7-1.9C6,83.9,5.9,83,5.9,82v-5.1l0.6,0.9
				c1,1.5,2.3,3.1,3.9,4.8c1.6,1.7,3,3,4.4,4h4.9c-0.7-0.6-1.5-1.4-2.4-2.4c-0.8-1-1.9-2.3-3.2-4l-3-4.2c0.9-0.3,1.7-0.7,2.4-1.1
				c1.9-1.2,2.9-3,2.9-5.3s-0.8-4-2.3-5.3c-1.5-1.2-3.7-1.9-6.6-1.9h-4H0.1c0.3,0.6,0.5,1.3,0.7,2C0.9,65.1,1,66,1,67v15
				C0.9,83,0.9,83.9,0.7,84.6z M6,66h0.2c1.5,0,2.6,0.3,3.5,0.9c0.8,0.6,1.2,1.5,1.2,2.6c0,1.3-0.4,2.3-1.3,3c-0.9,0.7-2,1-3.6,1.1
				V66z"/>
			<path class="st0" d="M27.4,86.8c2.7,0,5-0.9,6.8-2.6c1.8-1.8,2.7-4,2.7-6.6c0-2.7-0.9-4.9-2.6-6.7s-3.8-2.7-6.4-2.7
				c-2.9,0-5.3,0.9-7.2,2.7c-1.9,1.8-2.9,4-2.9,6.7s0.9,4.9,2.7,6.7C22.4,85.9,24.7,86.8,27.4,86.8z M23.4,72.6
				c0.9-1.1,2.1-1.7,3.5-1.7c1.7,0,3.2,0.7,4.3,2c1.1,1.3,1.7,3,1.7,5c0,1.7-0.5,3.1-1.4,4.2c-0.9,1.3-2.1,1.8-3.5,1.8
				c-1.7,0-3.2-0.7-4.3-2c-1.1-1.3-1.7-3-1.7-5C22,75.2,22.5,73.8,23.4,72.6z"/>
		</g>
	</g>
	<g>
		<g>
			<path class="st0" d="M225.1,101.6c0-0.7-0.5-1-1.6-1h-1.4v3.7h0.7v-1.6h0.8l0.7,1.6h0.8l-0.8-1.7
				C224.8,102.5,225.1,102.1,225.1,101.6z M223.4,102.2h-0.6V101h0.6c0.6,0,0.9,0.2,0.9,0.6S224,102.2,223.4,102.2z"/>
			<path class="st0" d="M223.5,99.3c-0.9,0-1.7,0.3-2.3,0.9c-0.7,0.6-1,1.4-1,2.3c0,0.9,0.3,1.7,0.9,2.3c0.6,0.7,1.4,1,2.3,1
				c0.8,0,1.7-0.4,2.3-1c0.6-0.6,0.9-1.4,0.9-2.3c0-0.9-0.3-1.7-0.9-2.3C225.1,99.6,224.3,99.2,223.5,99.3z M226.2,102.5
				c0,0.8-0.3,1.5-0.8,2s-1.2,0.8-2,0.8c-0.8,0-1.5-0.3-2-0.8c-0.5-0.6-0.8-1.3-0.8-2c0-0.7,0.4-1.4,0.9-2c0.6-0.5,1.2-0.8,2-0.8
				c0.8,0,1.5,0.2,2,0.8C226,101,226.3,101.7,226.2,102.5z"/>
		</g>
		<g>
			<polygon class="st0" points="198.2,109.4 198.1,109.4 189.1,99.5 184.5,99.5 184.5,113.1 188.5,113.1 188.5,103.2 188.6,103.2 
				197.7,113.1 202.2,113.1 202.2,99.5 198.2,99.5 			"/>
			<path class="st0" d="M213.1,104.9c-2.2-0.5-3.6-0.7-3.6-1.9c0-0.8,1-1.4,2.2-1.4c1.1,0,2.3,0.3,2.5,1.5h4.1
				c-0.2-2.8-3.9-3.9-6.5-3.9c-3.7,0-6.4,1.7-6.4,3.9c0,2.9,3.5,3.5,5.2,3.9c2.7,0.6,4.2,0.9,4.2,2.3c0,1-1.4,1.7-3,1.7
				c-1.2,0-2.7-0.5-2.9-1.8h-4.3c0.2,3,4.3,4.2,7.1,4.2c3.4,0,7.1-1.4,7.1-4.3C218.8,106.1,214.9,105.3,213.1,104.9z"/>
			<polygon class="st0" points="151.4,99.4 147.4,99.4 147.4,113.1 158.1,113.1 158.1,110.7 151.4,110.7 			"/>
			<path class="st0" d="M169.9,99.5l-9.1,13.6h4.5l2.3-3.5h7.8l2.3,3.5h4.5l-9.1-13.6H169.9z M168.9,107.2l2.5-4.2l2.5,4.2H168.9z"
				/>
			<path class="st0" d="M142.7,100.6c-2.1-1.1-4.1-1.1-6.4-1.1h-5.5v13.6h0.1h4v-5.2h1.4c2.3,0,4.3,0,6.4-1.1
				c1.4-0.8,2.1-1.9,2.1-3.1C144.8,102.4,144.1,101.4,142.7,100.6z M136.2,105.6h-1.3v-3.8h0.1h1.4c1.7,0,4.4,0.1,4.4,1.9
				C140.8,105.5,138,105.6,136.2,105.6z"/>
		</g>
		<g>
			<polygon class="st0" points="114.4,105 106.6,105 106.6,99.5 102.6,99.5 102.6,113.1 106.6,113.1 106.6,107.4 114.4,107.4 
				114.4,113.1 118.4,113.1 118.4,99.5 114.4,99.5 			"/>
			<polygon class="st0" points="88.2,101.8 92.2,101.8 92.2,113.1 92.3,113.1 96.3,113.1 96.3,101.8 100.4,101.8 100.4,99.4 
				88.2,99.4 			"/>
			<polygon class="st0" points="33.1,105 25.3,105 25.3,99.5 21.3,99.5 21.3,113.1 25.3,113.1 25.3,107.4 33.1,107.4 33.1,113.1 
				37.1,113.1 37.1,99.5 33.1,99.5 			"/>
			<polygon class="st0" points="41,113.1 52.8,113.1 52.8,110.7 45.1,110.7 45.1,107.5 52.5,107.5 52.5,105.1 45.1,105.1 
				45.1,101.8 52.8,101.8 52.8,99.4 41,99.4 			"/>
			<path class="st0" d="M63.9,99.5l-9.1,13.6h4.5l2.3-3.5h7.8l2.3,3.5h4.5l-9.1-13.6H63.9z M62.9,107.2l2.5-4.2l2.5,4.2H62.9z"/>
			<polygon class="st0" points="82.6,99.4 78.6,99.4 78.6,113.1 89.3,113.1 89.3,110.7 82.6,110.7 			"/>
		</g>
	</g>
</g>
</svg>
