<?xml version="1.0" encoding="utf-8"?>
<!-- Generator: Adobe Illustrator 23.0.6, SVG Export Plug-In . SVG Version: 6.00 Build 0)  -->
<svg version="1.1" id="BFF_AWARD_LOGOS" xmlns="http://www.w3.org/2000/svg" xmlns:xlink="http://www.w3.org/1999/xlink" x="0px"
	 y="0px" viewBox="0 0 636.8 252" style="enable-background:new 0 0 636.8 252;" xml:space="preserve">
<style type="text/css">
	.st0{fill-rule:evenodd;clip-rule:evenodd;fill:#FFFFFF;}
</style>
<path class="st0" d="M531.3,247.4c38-5.2,65.6-34.9,78.3-75.4c5.2-16.8,5.9-35.3,4.1-54.8c-3.2-33.2-18.4-64.1-42.8-86.8
	c-0.1-0.1-0.1-0.1-0.2,0c-0.1,0.1-0.2,0.2-0.4,0.3c-0.1,0.1-0.2,0-0.1,0.2c24.9,22.6,40.8,58.5,42.6,94.8
	c2.7,51.8-22.7,97.8-60.7,113.6c-6.4,2.7-13.1,4.7-20,5.8C531.5,245.7,531.3,246.6,531.3,247.4 M626,160.8c-3.1,3.7-8,7.3-13.4,5.9
	c-0.3,0.4-1.7,2.5-1.9,2.8c-0.2,0.4-0.7,0.8-1,0.4c-0.3-0.2-0.4-0.6-0.2-0.9c0.8-1,1.5-1.9,2.4-2.9c1.6-8.3,3.8-13.7,8.6-19.3
	c3.9-4.7,9-8.3,14.7-10.4c0.5-0.2,1-0.3,1.5-0.4c0,3.6-0.8,7.2-2.3,10.5C632.5,151.6,629.6,156.5,626,160.8 M580.3,44.9
	c0.4,0.2,3,0.8,3.3,0.3c0.1-0.3,0-0.6-0.3-0.7c-0.9-0.1-2-0.2-2.9-0.4c-1.7-5.2-6.3-7.5-10.6-8.4c-5.1-1-10.7,0.5-16.8,1.4
	c-0.3,0.1-0.6,0.1-0.9,0.1c0.1,0.2,0.2,0.4,0.4,0.5c2.7,3.6,6.2,6.4,10.3,8.1c2.8,1.1,5.7,1.7,8.7,1.6
	C574.7,47.5,577.7,46.6,580.3,44.9 M570.3,30.7c-0.2,0.1-0.2,0-0.6-0.2c-0.7-0.7-1.3-1.1-2.1-1.7c-4.2,0-8.2-1.2-11.7-3.6
	c-1.7-1.1-3.3-2.5-4.6-4c-3.4-3.8-5.8-8.4-7.1-13.3c-0.1-0.2-0.1-0.5-0.1-0.7c0.3,0.1,0.6,0.3,0.9,0.4c6.6,2.6,13,3.9,18.3,9
	c3.6,3.4,5.5,7.6,4.7,11.6c0.9,0.6,1.7,1.3,2.5,2C570.9,30.4,570.5,30.6,570.3,30.7 M594.3,66.8c0.4,0.2,3,1.5,3.3,1.1
	c0.2-0.3,0.1-0.6-0.1-0.8c-0.9-0.4-2-0.6-2.9-1c-0.5-4.1-2.9-7.6-6.6-9.5c-6.3-3.3-13.5-2.8-20.2-3.4c-0.3,0-0.6-0.1-0.9-0.1
	c0.1,0.2,0.2,0.4,0.3,0.6c2.4,4.1,5.7,7.7,9.6,10.4c2.6,1.7,5.5,2.9,8.6,3.5C588.4,68.2,591.5,67.9,594.3,66.8 M627.4,123.7
	c-2.1,4.6-5.7,9.6-11.1,9.9c-0.2,0.5-1.2,2.7-1.3,3c-0.1,0.5-0.5,1-0.9,0.8c-0.3-0.2-0.5-0.5-0.4-0.8c0.5-1.2,1.2-2.2,1.8-3.4
	c-0.5-8.4,0-14.5,3.2-21.5c2.6-5.9,6.7-10.9,11.8-14.8c0.4-0.3,0.8-0.6,1.3-0.9c0.6,3.7,0.6,7.5,0.1,11.2
	C631.2,112.9,629.7,118.5,627.4,123.7 M621.4,90c-0.9,4.9-3.1,9.8-8,11.9c0,0.5-0.6,2.9-0.7,3.2c0,0.5-0.2,1.1-0.7,1
	c-0.3-0.1-0.5-0.4-0.5-0.7c0.2-1.3,0.6-2.7,0.8-4.1c-1.7-5.6-2.4-11.4-2.2-17.2c0.4-7.7,3.3-15.1,8.3-20.9c0.4-0.4,0.7-0.8,1-1.2
	c1.4,3.3,2.2,6.9,2.5,10.5C622.5,78.3,622.3,84.2,621.4,90 M609,59.2c0.1,5-1.1,10.6-5.3,13.9c0,0.5,0.1,2.9,0.2,3.3
	c0.2,0.4,0,0.9-0.4,1.2c-0.3,0-0.6-0.2-0.6-0.5c0,0,0,0,0-0.1c-0.1-1.3-0.1-3.2-0.2-4.6c-3.7-6.1-5.6-13.2-5.6-20.3
	c-0.2-6.2,1.1-12.3,3.8-17.9c0.2-0.5,0.5-1,0.7-1.4c2,2.9,3.6,6.1,4.5,9.4C607.7,47.7,608.7,53.4,609,59.2 M590.2,31.1
	c1.1,4.7,0.8,11.6-2.8,14.5c0.1,0.6,0.4,2.7,0.5,3.2c0.1,0.5,0.2,1-0.2,1.2c-0.2,0.1-0.3,0.1-0.5-0.4c-0.2-1.3-0.3-2.4-0.5-3.8
	c-4.8-4.9-8.1-11.1-9.5-17.8c-1.3-5.8-1.6-11.9-0.7-17.8c0.1-0.5,0.2-1,0.4-1.5c4.4,3.7,7.9,8.3,10.2,13.5
	C588.6,24.9,589.6,28,590.2,31.1 M605.7,95.6c0.4,0.4,2.7,2.5,3.2,2.2c0.2-0.3,0.2-0.7,0-1c-0.9-0.7-1.9-1.2-2.8-1.8
	c0.4-4.5-1.2-8.9-4.4-12.1c-5.7-5.5-13.3-7.4-20.2-10.2c-0.3-0.2-0.6-0.3-1-0.4c0.1,0.3,0.1,0.5,0.2,0.8c1.5,5.1,4,9.9,7.4,14
	c2.3,2.6,5,4.9,8.1,6.5C599.1,95.1,602.4,95.8,605.7,95.6 M610.4,128.7c0.3,0.5,2.1,3.5,2.7,3.3c0.3-0.2,0.4-0.6,0.3-1
	c-0.8-1-1.7-1.8-2.4-2.8c1.1-4.9,0.4-10-2.2-14.3c-4.4-7.5-10.9-11.2-17.2-16.4c-0.3-0.3-0.6-0.5-0.8-0.8c0,0.3,0,0.5,0,0.8
	c0.2,5.7,1.5,11.3,3.9,16.5c1.7,3.4,3.9,6.6,6.6,9.3C603.8,125.9,607,127.7,610.4,128.7 M607.3,161.1c0.2,0.6,1.5,4.1,2.1,4.2
	c0.3-0.2,0.5-0.5,0.4-0.9c-0.5-1.1-1.1-2.5-1.6-3.7c2.1-2,2.8-7.6,1.1-13.4c-2.8-8.5-9.2-14.9-14.2-22c-0.2-0.3-0.5-0.7-0.7-1
	c-0.1,0.3-0.1,0.5-0.2,0.8c-0.9,5.6-0.7,11.4,0.5,17c1,3.9,2.5,7.5,4.6,10.9C601.4,156.3,604.1,159.1,607.3,161.1 M614.9,199.1
	c-3.8,2.5-10.7,4.4-15.5,1.3c-0.4,0.3-2.4,1.4-2.6,1.7c-0.3,0.3-0.8,0.6-1.1,0.1c-0.2-0.3-0.2-0.7,0.1-0.9c1-0.7,2.1-1.1,3.1-1.8
	c3.6-7.5,7.5-12.5,13.5-16.2c4.8-3.1,10.5-4.7,16.2-4.4c0.5,0,1,0,1.5,0C629.2,186.2,620,195.9,614.9,199.1 M596,193.3
	c0.1,1.3,0.3,2.6,0.6,3.8c0.1,0.4,0.1,0.9,0.7,0.7c0.2-0.1,0.4-0.4,0.4-0.7c-0.3-1.3-0.4-2.6-0.5-3.9c2.4-1.5,4.2-6.4,4.6-12.4
	c-0.4-9-4.5-17.2-7.8-25.8c-0.1-0.4-0.2-0.8-0.4-1.2c-0.1,0.2-0.2,0.4-0.4,0.6c-2.4,5.1-3.8,10.7-4,16.4c-0.1,4.1,0.4,8.1,1.5,12
	C591.7,186.8,593.5,190.3,596,193.3 M594,230c-4.4,0.9-10.4,0.7-14.2-4c-0.9,0.1-2.5,0.4-3.5,0.4c-0.3,0-0.6-0.2-0.6-0.5
	c-0.1-0.3,0.1-0.7,0.5-0.8c1.1-0.2,2.2-0.2,3.4-0.4c5-5.8,9.7-9.1,16.5-10.3c6.1-1,12.3-0.3,18,2c0.5,0.2,1,0.4,1.4,0.6
	c-1.8,2.9-4.3,5.4-7.2,7.1C604,227.1,599.2,229.1,594,230 M578.2,217.7c-0.1,0.5-0.2,2.5-0.2,3.9c0,0.4-0.1,0.9,0.4,0.9
	c0.3,0,0.5-0.3,0.5-0.5c0.1-1.3,0-2.6,0.3-3.9c2.6-0.8,6.1-4.8,7.7-10.2c1.8-8.7-0.2-17.7-1.1-27c-0.1-0.4,0-0.8-0.1-1.3
	c-0.2,0.2-0.4,0.3-0.5,0.5c-3.7,4.1-6.4,8.9-7.9,14.2c-1.1,3.8-1.6,7.8-1.6,11.8C575.7,210.1,576.6,214.1,578.2,217.7 M553.3,235.5
	c-0.4,1.1-0.6,2.2-0.9,3.4c-0.1,0.3-0.3,0.8,0.2,0.9c0.3,0.1,0.5-0.1,0.6-0.3c0.5-1.1,0.5-2.2,1-3.3c2.6,0.6,7-2.6,9.9-6.8
	c4-7.2,4.5-15.8,6-24.4c0-0.4,0.2-0.8,0.2-1.2c-0.2,0-0.4,0.2-0.6,0.2c-4.4,2.2-8.2,5.5-11.1,9.5c-2.1,3.1-3.8,6.6-4.8,10.2
	C552.9,227.7,552.7,231.7,553.3,235.5 M567.3,251.6c-4.5-0.6-10.4-2.7-13-8.4c-0.9-0.3-2.5-0.4-3.5-0.7c-0.3-0.1-0.5-0.4-0.4-0.7
	c0-0.3,0.3-0.6,0.6-0.6c1.1,0.2,2.2,0.5,3.5,0.6c6.6-3.9,11.9-5.6,18.8-4.6c6.2,1,12,3.6,16.8,7.6c0.5,0.4,0.9,0.7,1.3,1.1
	c-1.9,2.4-6.2,3.9-8.8,4.6C577.7,252,572.4,252.4,567.3,251.6 M401.3,247.4c-38-5.2-65.6-34.9-78.3-75.4
	c-5.2-16.8-5.9-35.3-4.1-54.8c3.2-33.2,18.4-64.1,42.8-86.8c0.1-0.1,0.1-0.1,0.2,0c0.1,0.1,0.2,0.2,0.4,0.3c0.1,0.1,0.2,0,0.1,0.2
	c-24.9,22.6-40.8,58.5-42.6,94.8c-2.7,51.8,22.7,97.8,60.7,113.6c6.4,2.7,13.1,4.7,20,5.8C401,245.7,401.3,246.6,401.3,247.4
	 M306.6,160.8c3.1,3.7,8,7.3,13.4,5.9c0.3,0.4,1.7,2.5,1.9,2.8c0.2,0.4,0.7,0.8,1,0.4c0.3-0.2,0.4-0.6,0.2-0.9
	c-0.8-1-1.5-1.9-2.4-2.9c-1.6-8.3-3.8-13.7-8.6-19.3c-3.9-4.7-9-8.3-14.7-10.4c-0.5-0.2-1-0.3-1.5-0.4c0,3.6,0.8,7.2,2.3,10.5
	C300.1,151.6,303,156.5,306.6,160.8 M352.3,44.9c-0.4,0.2-3,0.8-3.3,0.3c-0.1-0.3,0-0.5,0.3-0.7c0.9-0.1,2-0.2,2.9-0.4
	c1.7-5.2,6.3-7.5,10.6-8.4c5.1-1,10.7,0.5,16.8,1.4c0.3,0.1,0.6,0.1,0.9,0.1c-0.1,0.2-0.2,0.4-0.4,0.5c-2.7,3.6-6.2,6.4-10.3,8.1
	c-2.8,1.1-5.7,1.7-8.7,1.6C357.9,47.5,354.9,46.6,352.3,44.9 M362.3,30.7c0.2,0.1,0.2,0,0.6-0.2c0.7-0.7,1.3-1.1,2.1-1.7
	c4.2,0,8.2-1.2,11.7-3.6c1.7-1.1,3.3-2.5,4.6-4c3.4-3.8,5.8-8.4,7.1-13.3c0.1-0.2,0.1-0.5,0.1-0.7c-0.3,0.1-0.6,0.3-0.9,0.4
	c-6.6,2.6-13,3.9-18.3,9c-3.6,3.4-5.5,7.6-4.7,11.6c-0.9,0.6-1.7,1.3-2.5,2C361.7,30.4,362.1,30.6,362.3,30.7 M338.2,66.8
	c-0.4,0.2-3,1.5-3.3,1.1c-0.2-0.3-0.1-0.6,0.1-0.8c0.9-0.4,2-0.6,2.9-1c0.4-4.1,2.9-7.6,6.5-9.5c6.3-3.3,13.5-2.8,20.2-3.4
	c0.3,0,0.6-0.1,0.9-0.1c-0.1,0.2-0.2,0.4-0.3,0.6c-2.4,4.1-5.7,7.7-9.6,10.4c-2.6,1.7-5.5,2.9-8.6,3.5
	C344.2,68.2,341.1,67.9,338.2,66.8 M305.2,123.7c2.1,4.6,5.7,9.6,11.1,9.9c0.2,0.5,1.2,2.7,1.3,3c0.1,0.5,0.5,1,0.9,0.8
	c0.3-0.2,0.5-0.5,0.4-0.8c-0.5-1.2-1.2-2.2-1.8-3.4c0.5-8.4,0-14.5-3.2-21.5c-2.6-5.9-6.7-10.9-11.8-14.8c-0.4-0.3-0.8-0.6-1.3-0.9
	c-0.6,3.7-0.6,7.5,0,11.2C301.4,112.9,302.9,118.5,305.2,123.7 M311.2,90c0.9,4.9,3.1,9.8,8,11.9c0.1,0.5,0.6,2.9,0.7,3.2
	c0,0.5,0.2,1.1,0.7,1c0.3-0.1,0.5-0.4,0.5-0.7c-0.2-1.3-0.6-2.7-0.8-4.1c1.7-5.6,2.4-11.4,2.2-17.2c-0.4-7.7-3.3-15.1-8.3-20.9
	c-0.4-0.4-0.7-0.8-1-1.2c-1.4,3.3-2.2,6.9-2.5,10.5C310.1,78.3,310.3,84.2,311.2,90 M323.6,59.2c-0.1,5,1.1,10.6,5.3,13.9
	c0,0.5-0.1,2.9-0.2,3.3c-0.2,0.4,0,0.9,0.4,1.2c0.3,0,0.6-0.2,0.6-0.5c0,0,0,0,0-0.1c0.1-1.3,0.1-3.2,0.2-4.6
	c3.7-6.1,5.6-13.2,5.6-20.3c0.2-6.2-1.1-12.3-3.8-17.9c-0.2-0.5-0.5-1-0.7-1.4c-2,2.9-3.6,6.1-4.5,9.4
	C324.9,47.7,323.8,53.4,323.6,59.2 M342.4,31.1c-1.1,4.7-0.8,11.6,2.7,14.5c-0.1,0.6-0.4,2.7-0.5,3.2c-0.1,0.5-0.2,1,0.2,1.2
	c0.2,0.1,0.3,0.1,0.5-0.4c0.2-1.3,0.3-2.4,0.5-3.8c4.8-4.9,8.1-11.1,9.5-17.8c1.3-5.8,1.6-11.9,0.7-17.8c-0.1-0.5-0.2-1-0.4-1.5
	c-4.4,3.7-7.9,8.3-10.2,13.5C343.9,24.9,342.9,28,342.4,31.1 M326.9,95.6c-0.4,0.4-2.7,2.5-3.2,2.2c-0.2-0.3-0.2-0.7,0-1
	c0.9-0.7,1.9-1.2,2.8-1.8c-0.4-4.5,1.2-8.9,4.4-12.1c5.7-5.5,13.3-7.4,20.2-10.2c0.3-0.1,0.6-0.3,1-0.4c-0.1,0.3-0.1,0.5-0.2,0.8
	c-1.5,5.1-4,9.9-7.4,14c-2.3,2.6-5,4.9-8.1,6.5C333.5,95.1,330.2,95.8,326.9,95.6 M322.1,128.7c-0.3,0.5-2.1,3.5-2.7,3.3
	c-0.3-0.2-0.4-0.6-0.3-1c0.8-1,1.7-1.8,2.4-2.8c-1.1-4.9-0.4-10,2.2-14.3c4.4-7.5,10.9-11.2,17.2-16.4c0.3-0.3,0.6-0.5,0.8-0.8
	c0,0.3,0,0.5,0,0.8c-0.2,5.7-1.5,11.3-3.9,16.5c-1.7,3.4-3.9,6.6-6.6,9.3C328.8,125.9,325.6,127.7,322.1,128.7 M325.3,161.1
	c-0.2,0.6-1.5,4.1-2.1,4.2c-0.3-0.2-0.5-0.5-0.5-0.9c0.5-1.1,1.1-2.5,1.6-3.7c-2.1-2-2.8-7.6-1.1-13.4c2.8-8.5,9.1-14.9,14.2-22
	c0.2-0.3,0.5-0.7,0.7-1c0.1,0.3,0.1,0.5,0.2,0.8c0.9,5.6,0.8,11.4-0.5,17c-1,3.8-2.5,7.5-4.6,10.9
	C331.2,156.3,328.5,159.1,325.3,161.1 M317.7,199.1c3.8,2.5,10.7,4.4,15.5,1.3c0.4,0.3,2.4,1.4,2.6,1.7c0.3,0.3,0.8,0.6,1.1,0.1
	c0.2-0.3,0.2-0.7-0.1-0.9c-1-0.7-2.1-1.1-3.1-1.8c-3.6-7.5-7.5-12.5-13.5-16.2c-4.8-3.1-10.5-4.7-16.2-4.4c-0.5,0-1,0-1.5,0
	C303.4,186.2,312.5,195.9,317.7,199.1 M336.6,193.3c-0.1,1.3-0.3,2.6-0.6,3.8c-0.1,0.4-0.1,0.9-0.6,0.7c-0.2-0.1-0.4-0.4-0.4-0.7
	c0.3-1.3,0.4-2.6,0.5-3.9c-2.4-1.5-4.2-6.4-4.6-12.4c0.4-9,4.5-17.2,7.8-25.8c0.1-0.4,0.2-0.8,0.4-1.2c0.1,0.2,0.2,0.4,0.4,0.6
	c2.4,5.1,3.8,10.7,4,16.4c0.1,4.1-0.4,8.1-1.5,12C340.8,186.8,339,190.3,336.6,193.3 M338.5,230c4.4,0.9,10.4,0.7,14.2-4
	c0.9,0.1,2.5,0.4,3.5,0.4c0.3,0,0.6-0.2,0.6-0.5c0.1-0.3-0.1-0.7-0.5-0.8c-1.1-0.2-2.2-0.2-3.4-0.4c-5-5.8-9.7-9.1-16.5-10.3
	c-6.1-1-12.3-0.3-18,2c-0.5,0.2-1,0.4-1.4,0.6c1.8,2.9,4.3,5.4,7.3,7.1C328.5,227.1,333.4,229.1,338.5,230 M354.4,217.7
	c0.1,0.5,0.2,2.5,0.2,3.9c0,0.4,0.1,0.9-0.4,0.9c-0.3,0-0.5-0.3-0.5-0.5c-0.1-1.3,0-2.6-0.3-3.9c-2.6-0.8-6.1-4.8-7.7-10.2
	c-1.8-8.7,0.2-17.7,1.1-27c0.1-0.4,0-0.8,0.1-1.3c0.2,0.2,0.4,0.3,0.5,0.5c3.6,4.1,6.4,8.9,7.9,14.2c1.1,3.8,1.6,7.8,1.6,11.8
	C356.9,210.1,356,214.1,354.4,217.7 M379.2,235.5c0.4,1.1,0.6,2.2,0.9,3.4c0.1,0.3,0.3,0.8-0.2,0.9c-0.3,0.1-0.5-0.1-0.6-0.3
	c-0.5-1.1-0.5-2.2-1-3.3c-2.5,0.6-7-2.6-9.9-6.8c-4-7.2-4.5-15.8-6-24.4c0-0.4-0.2-0.8-0.2-1.2c0.2,0,0.4,0.2,0.6,0.2
	c4.4,2.2,8.2,5.5,11.1,9.5c2.2,3.1,3.8,6.6,4.8,10.2C379.6,227.7,379.8,231.7,379.2,235.5 M365.3,251.6c4.5-0.6,10.4-2.7,13-8.4
	c0.9-0.3,2.5-0.4,3.5-0.7c0.3-0.1,0.5-0.4,0.4-0.7c0-0.3-0.3-0.6-0.6-0.6c-1.1,0.2-2.2,0.5-3.5,0.6c-6.6-3.9-11.9-5.6-18.8-4.6
	c-6.2,1-12,3.6-16.8,7.6c-0.5,0.4-0.9,0.7-1.3,1.1c1.9,2.4,6.2,3.9,8.8,4.6C354.9,252,360.1,252.4,365.3,251.6 M411.1,95.4
	c-4.6,3.7-11.1,3.7-15.6,0c-2.5-2.6-3.9-6.1-3.6-9.8c-0.3-3.6,1-7.2,3.6-9.8c4.6-3.7,11.1-3.7,15.6,0c2.6,2.6,3.9,6.1,3.6,9.8
	C415,89.2,413.7,92.8,411.1,95.4L411.1,95.4z M408,91.8c2.3-3.8,2.3-8.5,0-12.3c-1.1-1.4-2.9-2.3-4.7-2.2c-1.8-0.1-3.6,0.7-4.7,2.2
	c-2.3,3.8-2.3,8.6,0,12.3c1.1,1.4,2.9,2.2,4.7,2.2C405.1,94,406.9,93.2,408,91.8L408,91.8z M418.5,73.8h17V78h-12v5.4H434v4.1h-10.6
	v9.9h-4.9L418.5,73.8L418.5,73.8z M438.8,73.8h17V78h-12v5.4h10.6v4.1h-10.6v9.9h-4.9L438.8,73.8L438.8,73.8z M463.5,97.5h-4.9V73.8
	h4.9L463.5,97.5L463.5,97.5z M470.5,76.3c4.6-4.2,11.6-3.8,15.8,0.7c0.1,0.1,0.2,0.2,0.3,0.3c0.9,1.3,1.5,2.8,1.6,4.4h-5
	c-0.2-0.9-0.6-1.8-1.2-2.6c-1-1.1-2.5-1.6-3.9-1.5c-1.7,0-3.3,0.8-4.2,2.2c-1.1,1.8-1.7,4-1.5,6.2c-0.2,2.1,0.4,4.2,1.6,6
	c1,1.3,2.5,2,4.1,2c1.5,0.1,3-0.5,3.9-1.7c0.6-0.8,1-1.8,1.2-2.7h4.9c-0.3,2.4-1.5,4.6-3.3,6.3c-1.8,1.7-4.3,2.5-6.7,2.4
	c-3,0.2-6-1.1-8-3.3C466,89.3,466.2,81.7,470.5,76.3L470.5,76.3z M496.6,97.5h-4.9V73.8h4.9V97.5z M508.1,73.8h5.6l8.4,23.7h-5.4
	l-1.6-4.9h-8.8l-1.6,4.9h-5.2L508.1,73.8z M507.8,88.5h6.1l-3-9.3L507.8,88.5z M525.2,73.8h5v19.4h11.9v4.3h-16.9V73.8z
	 M377.7,129.6c0.1,0.9,0.4,1.7,0.9,2.4c1.1,1.1,2.7,1.6,4.2,1.5c1,0,2-0.1,2.9-0.4c1.3-0.3,2.2-1.4,2.1-2.7c0-0.8-0.4-1.5-1-1.8
	c-1-0.5-2.2-0.9-3.3-1.1l-2.6-0.6c-1.8-0.3-3.6-0.9-5.2-1.8c-1.6-1.2-2.5-3.1-2.4-5.1c0-2,0.8-4,2.4-5.3c2-1.5,4.4-2.3,6.9-2.1
	c2.3-0.1,4.6,0.6,6.5,2c1.8,1.4,2.9,3.5,2.8,5.8h-4.8c0-1.3-0.8-2.5-1.9-3c-0.9-0.4-1.9-0.6-3-0.6c-1.1-0.1-2.2,0.2-3.1,0.8
	c-0.8,0.5-1.2,1.3-1.2,2.2c0,0.8,0.4,1.6,1.2,1.9c1,0.4,2.1,0.8,3.2,1l4.2,1c1.5,0.3,2.9,0.9,4.1,1.7c1.4,1.2,2.2,3,2.1,4.8
	c0,2.1-0.9,4.1-2.5,5.4c-2,1.5-4.6,2.3-7.1,2.1c-2.6,0.2-5.2-0.6-7.4-2.1c-1.8-1.4-2.8-3.5-2.7-5.8L377.7,129.6L377.7,129.6z
	 M413.8,117.5h-12.6v5h11.6v4.1h-11.6v6.1h13.2v4.3h-18v-23.7h17.5L413.8,117.5L413.8,117.5z M418.2,113.3h5v19.4h11.9v4.3h-16.9
	V113.3z M456.1,117.5h-12.6v5H455v4.1h-11.6v6.1h13.2v4.3h-18.1v-23.7h17.5L456.1,117.5L456.1,117.5z M462.8,115.7
	c4.6-4.2,11.6-3.8,15.8,0.7c0.1,0.1,0.2,0.2,0.3,0.3c0.9,1.3,1.5,2.8,1.6,4.4h-5c-0.2-0.9-0.6-1.8-1.2-2.6c-2.1-2.1-5.5-2.1-7.6,0
	c-0.2,0.2-0.4,0.4-0.5,0.6c-1.1,1.8-1.7,4-1.5,6.2c-0.2,2.1,0.4,4.2,1.6,6c1,1.3,2.5,2,4.1,2c1.5,0.1,3-0.6,3.9-1.7
	c0.6-0.8,1-1.8,1.2-2.7h4.9c-0.3,2.4-1.5,4.6-3.3,6.3c-1.8,1.7-4.3,2.5-6.7,2.4c-3,0.2-6-1.1-8-3.3
	C458.4,128.7,458.6,121.1,462.8,115.7L462.8,115.7z M501.8,113.3v4.2h-7.1v19.5h-5v-19.5h-7.2v-4.2H501.8L501.8,113.3z M509.2,136.9
	h-4.9v-23.7h4.9V136.9z M532.2,134.8c-4.6,3.7-11.1,3.7-15.6,0c-2.5-2.6-3.9-6.1-3.6-9.8c-0.3-3.6,1-7.2,3.6-9.8
	c4.6-3.7,11.1-3.7,15.6,0c2.6,2.6,3.9,6.1,3.6,9.8C536.1,128.7,534.8,132.2,532.2,134.8L532.2,134.8z M529.1,131.2
	c2.3-3.8,2.3-8.5,0-12.3c-1.1-1.4-2.9-2.3-4.7-2.2c-1.8-0.1-3.6,0.7-4.7,2.2c-2.3,3.8-2.3,8.5,0,12.3c1.1,1.4,2.9,2.2,4.7,2.2
	C526.3,133.5,528,132.7,529.1,131.2L529.1,131.2z M539.5,113.3h5.2l9.5,16.5v-16.5h4.6v23.7h-5l-9.7-16.8v16.8h-4.6L539.5,113.3
	L539.5,113.3z M431.6,171.8c1.1-2,2.7-3.7,4.7-4.9c1.5-1,2.8-2.1,4.1-3.2c0.9-0.9,1.4-2.1,1.4-3.3c0-0.9-0.3-1.8-0.8-2.5
	c-1.3-1.3-3.5-1.3-4.8,0c-0.2,0.2-0.3,0.4-0.5,0.6c-0.4,0.9-0.5,1.9-0.5,2.9h-4.5c0-1.7,0.4-3.3,1.1-4.8c1.3-2.4,3.9-3.7,6.6-3.5
	c2.2-0.1,4.3,0.6,5.9,2c1.5,1.4,2.3,3.4,2.2,5.4c0,1.7-0.5,3.3-1.6,4.6c-1,1.2-2.1,2.2-3.4,3l-1.8,1.3c-1.2,0.8-1.9,1.4-2.4,1.8
	c-0.4,0.4-0.8,0.8-1.1,1.3h10.2v4h-16.1C430.5,174.8,430.9,173.3,431.6,171.8z M463.3,156.1c2.4,5.7,2.4,12.1,0,17.8
	c-2.6,3.5-7.6,4.1-11,1.5c-0.6-0.4-1.1-0.9-1.5-1.5c-2.4-5.7-2.4-12.1,0-17.8c2.6-3.5,7.5-4.2,11-1.6
	C462.3,155,462.8,155.5,463.3,156.1L463.3,156.1z M454.3,171.1c0.3,1.3,1.4,2.2,2.7,2.1c1.3,0.1,2.4-0.8,2.7-2.1
	c0.5-2,0.7-4.1,0.6-6.2c0.1-2.1-0.1-4.2-0.6-6.2c-0.3-1.2-1.4-2.1-2.7-2c-1.3-0.1-2.4,0.8-2.7,2c-0.5,2-0.7,4.1-0.7,6.2
	C453.6,167.1,453.8,169.1,454.3,171.1L454.3,171.1z M468.6,160.4v-3.1c1,0,2-0.1,3-0.3c0.9-0.2,1.6-0.6,2.3-1.2
	c0.4-0.5,0.7-1,0.9-1.7c0.1-0.3,0.2-0.6,0.2-0.9h3.8v23.3h-4.7v-16H468.6L468.6,160.4z M486.5,166.4c0.6-1.1,1.5-1.9,2.6-2.4
	c-1-0.6-1.7-1.4-2.2-2.4c-0.3-0.8-0.5-1.6-0.5-2.4c0-1.7,0.7-3.2,1.9-4.3c3.2-2.4,7.6-2.4,10.9,0c1.2,1.1,1.9,2.7,1.9,4.3
	c0,0.8-0.2,1.7-0.5,2.4c-0.4,1-1.2,1.8-2.2,2.3c1.1,0.6,2,1.5,2.6,2.5c0.6,1.1,0.9,2.3,0.9,3.6c0,1.9-0.8,3.7-2.2,5
	c-1.7,1.5-3.9,2.2-6.1,2.1c-2.2,0.2-4.3-0.6-6-2.1c-1.3-1.3-2.1-3.1-2-5C485.6,168.7,485.9,167.5,486.5,166.4L486.5,166.4z
	 M491.3,172.3c1.4,1.3,3.5,1.3,5,0c0.6-0.7,1-1.7,0.9-2.7c0.1-1-0.3-2-0.9-2.7c-1.4-1.2-3.5-1.2-4.9,0c-0.7,0.7-1,1.7-0.9,2.7
	C490.3,170.6,490.6,171.6,491.3,172.3L491.3,172.3z M491.6,161.7c0.6,0.6,1.4,0.8,2.2,0.8c0.8,0,1.6-0.2,2.2-0.8
	c0.5-0.6,0.8-1.3,0.8-2.1c0.1-1.6-1.2-3-2.8-3.1c-1.6-0.1-3,1.2-3.1,2.8c0,0.1,0,0.2,0,0.3C490.8,160.4,491,161.2,491.6,161.7
	L491.6,161.7z"/>
<path class="st0" d="M27.3,213c0-1.7-1.4-3.1-3.1-3.1c-1.7,0-3.1,1.4-3.1,3.1s1.4,3.1,3.1,3.1c0,0,0,0,0,0
	C25.9,216.1,27.3,214.7,27.3,213 M34.5,221.5c0-0.1,0-0.1,0-0.2c0,0,0-0.1,0-0.1v-1.4c0-0.5-0.4-0.9-0.9-0.9h-10
	c-0.5,0-0.9,0.4-0.9,0.9v6.4c0,0.5,0.4,0.9,0.9,0.9c0,0,0,0,0,0h10c0.5,0,0.9-0.4,0.9-0.8V225c0,0,0,0,0-0.1c0-0.1,0-0.1,0-0.2
	c0.1-0.2,0.3-0.3,0.5-0.2l4.6,1.6v-6.3l-4.6,1.8C34.8,221.8,34.6,221.7,34.5,221.5C34.5,221.5,34.5,221.5,34.5,221.5 M33.1,216.1
	c1.7,0,3.1-1.4,3-3.1s-1.4-3.1-3.1-3c-1.7,0-3,1.4-3,3.1C30.1,214.7,31.5,216.1,33.1,216.1 M40.3,226.7c0,0.1-0.1,0.2-0.2,0.3
	c-0.1,0.1-0.1,0.1-0.2,0.1c0,0-0.1,0-0.1,0l-4.6-1.6v0.8c0,0.9-0.8,1.6-1.7,1.6h-10c-0.9,0-1.7-0.7-1.7-1.7c0,0,0,0,0,0v-6.4
	c0-0.9,0.7-1.7,1.7-1.7h10c0.9,0,1.7,0.7,1.7,1.7v1l4.6-1.8c0.1,0,0.3,0,0.4,0c0.1,0.1,0.2,0.2,0.2,0.3L40.3,226.7L40.3,226.7z
	 M20.3,213c0-2.1,1.7-3.8,3.8-3.9c2.1,0,3.8,1.7,3.9,3.8c0,2.1-1.7,3.8-3.8,3.9c0,0,0,0,0,0C22.1,216.9,20.4,215.2,20.3,213
	C20.3,213,20.3,213,20.3,213 M33.1,209.2c2.1,0,3.8,1.7,3.8,3.8c0,2.1-1.7,3.8-3.8,3.8c-2.1,0-3.8-1.7-3.8-3.8
	C29.3,210.9,31,209.2,33.1,209.2C33.1,209.2,33.1,209.2,33.1,209.2 M30.1,204.8c-8.1,0-14.6,6.6-14.6,14.6c0,8.1,6.6,14.6,14.6,14.6
	c8.1,0,14.6-6.5,14.6-14.6C44.7,211.3,38.2,204.8,30.1,204.8 M100.4,217.2v4.5l3.4-2.2L100.4,217.2z M99.6,216.5
	c0-0.2,0.2-0.4,0.4-0.4c0.1,0,0.2,0.1,0.3,0.1c0,0,0.1,0,0.1,0l4.3,2.9c0,0,0,0,0.1,0c0,0,0,0,0.1,0.1l0,0l0,0c0,0,0,0.1,0,0.1
	c0,0,0,0.1,0,0.1c0,0,0,0.1,0,0.1c0,0.1,0,0.1-0.1,0.1l0,0c0,0-0.1,0.1-0.1,0.1l-4.3,2.8c-0.1,0.1-0.1,0.1-0.2,0.1c0,0,0,0,0,0
	c-0.1,0-0.1,0-0.2,0c-0.2,0-0.4-0.2-0.4-0.4L99.6,216.5L99.6,216.5z M95.3,226.6h12.8v-14.1H95.3V226.6z M92.1,214.2v10.6
	c0,1,0.8,1.7,1.7,1.7h0.7v-14.1h-0.7C92.9,212.5,92.1,213.2,92.1,214.2 M109.5,212.5h-0.7v14.1h0.7c1,0,1.7-0.8,1.7-1.7v-10.6
	C111.3,213.2,110.5,212.5,109.5,212.5 M109.5,227.3H93.8c-1.4,0-2.5-1.1-2.5-2.5c0,0,0,0,0,0v-10.6c0-1.4,1.1-2.5,2.5-2.5h15.7
	c1.4,0,2.5,1.1,2.5,2.5v10.6C112.1,226.2,110.9,227.3,109.5,227.3C109.5,227.3,109.5,227.3,109.5,227.3 M101.5,204.8
	c-8.1,0-14.6,6.6-14.6,14.6c0,8.1,6.6,14.6,14.6,14.6c8.1,0,14.6-6.5,14.6-14.6C116.1,211.3,109.6,204.8,101.5,204.8 M68.2,210.4
	l-2.6,1.5l0,0l-0.6,2.4l2.6-1.5L68.2,210.4z M59.6,220h3.2l-1.7-1.7h-1.5V220L59.6,220z M70.4,209.2L69,210l0,0l-0.6,2.4l2.9-1.7
	L70.4,209.2z M64.9,212.4l-2.6,1.5l0,0l-0.6,2.4l2.6-1.5L64.9,212.4z M70.7,220l-1.7-1.7h-3l1.7,1.7H70.7z M66.8,220l-1.7-1.7h-3
	l1.7,1.7H66.8L66.8,220z M69.9,218.3l1.7,1.7h1.7v-1.7H69.9z M62,223.2c-0.2,0-0.3-0.1-0.3-0.3c0-0.2,0.1-0.3,0.3-0.3c0,0,0,0,0,0
	h8.9c0.2,0,0.3,0.1,0.3,0.3c0,0.2-0.1,0.3-0.3,0.3c0,0,0,0,0,0h-4.1v1.7h4.1c0.2,0,0.3,0.1,0.3,0.3c0,0.2-0.1,0.3-0.3,0.3
	c0,0,0,0,0,0H62c-0.2,0-0.3-0.1-0.3-0.3c0-0.2,0.1-0.3,0.3-0.3c0,0,0,0,0,0h4.1v-1.7H62z M59.6,227c0,0.3,0.2,0.5,0.5,0.5
	c0,0,0,0,0,0h12.6c0.3,0,0.5-0.2,0.5-0.5c0,0,0,0,0,0v-6.4H59.6L59.6,227L59.6,227z M73.9,227c0,0.7-0.5,1.2-1.2,1.2H60.2
	c-0.7,0-1.2-0.5-1.2-1.2v-6.6c0,0,0,0,0-0.1s0,0,0-0.1V218c0,0,0,0,0,0l-1.1-1.9c-0.1-0.2,0-0.4,0.1-0.4l12.4-7.1
	c0.1-0.1,0.2-0.1,0.2,0c0.1,0,0.2,0.1,0.2,0.2l1.2,2c0.1,0.2,0,0.4-0.1,0.5l-11.4,6.6h13.1c0.2,0,0.3,0.2,0.3,0.3v2.4c0,0,0,0,0,0.1
	s0,0,0,0.1L73.9,227L73.9,227z M66,204.8c-8.1,0-14.6,6.6-14.6,14.6c0,8.1,6.6,14.6,14.6,14.6c8.1,0,14.6-6.5,14.6-14.6
	C80.6,211.3,74.1,204.8,66,204.8 M61.5,214.3l-2.9,1.7l0.9,1.5l1.4-0.8L61.5,214.3z M252.7,252H0V0h252.8L252.7,252L252.7,252z
	 M11.3,240.7h230.1V11.3h-230L11.3,240.7L11.3,240.7z M15.7,108.9h6.9V98.7h10.9v-5.3H22.6V88h12.6v-5.5H15.7V108.9L15.7,108.9z
	 M37.5,108.9h21.4V103H44.4v-5h12.9v-5.3H44.4V88h14.2v-5.5h-21L37.5,108.9L37.5,108.9z M60.6,100c0,6.8,5.4,9.4,11.5,9.4
	c5.8,0,11.5-2.1,11.5-8.8c0-4.8-3.8-6.5-7.7-7.6c-3.8-1.1-7.7-1.4-7.7-3.5c0-1.7,1.8-2.2,3.3-2.2c2.1,0,4.4,0.8,4.2,3.2h6.9
	c0-5.9-5.3-8.5-10.6-8.5c-5,0-10.8,2.3-10.8,8c0,4.8,4,6.5,7.7,7.6c3.8,1.1,7.6,1.5,7.6,3.8c0,2-2.1,2.7-4.2,2.7c-2.9,0-4.8-1-5-4.1
	L60.6,100L60.6,100z M107.3,82.6H84.7v5.9h7.9v20.4h6.9V88.5h7.9L107.3,82.6L107.3,82.6z M110.4,108.9h6.9V82.6h-6.9V108.9z
	 M144.4,82.6h-7.2l-5.2,19.6h-0.1l-5.2-19.6h-7.1l8.3,26.3h7.9L144.4,82.6z M154.3,89.9L154.3,89.9l3,9.2h-6L154.3,89.9z M141,108.9
	h7.1l1.7-4.7h9.2l1.6,4.7h7.2l-9.9-26.3h-7L141,108.9z M170.5,108.9h19.2V103h-12.3V82.6h-6.9L170.5,108.9L170.5,108.9z M15.7,76
	h6.9V65.8h10.9v-5.3H22.6v-5.4h12.6v-5.5H15.7V76L15.7,76z M37.9,76h6.9V49.7h-6.9L37.9,76L37.9,76z M48.1,76h19.2v-5.9H54.9V49.7
	h-6.9V76L48.1,76z M69.6,76H76V56h0.1l5.5,20h5.2l5.5-20h0.1v20H99V49.7H88.9l-4.5,17.5h-0.1l-4.5-17.5H69.6L69.6,76L69.6,76z
	 M22.6,31.5h5.5c2.1,0,3.7,0.8,3.7,3.1c0,2.2-1.5,2.9-3.7,2.9h-5.5V31.5z M15.7,43.1h12.7c5.7,0,10.3-1.9,10.3-8.2
	c0.1-2.9-1.8-5.5-4.5-6.2c2.1-0.9,3.4-3,3.5-5.3c0-5.5-5-6.7-9.5-6.6H15.7L15.7,43.1L15.7,43.1z M22.6,22.1h5.3
	c1.3-0.2,2.6,0.7,2.8,2.1c0,0.2,0,0.3,0,0.5c0,1.4-1.2,2.5-2.6,2.5c-0.1,0-0.1,0-0.2,0h-5.3V22.1z M40.9,43.1h6.9v-9.6H53
	c3.2,0,3.7,2.7,3.8,5.4c0,1.4,0.3,2.9,0.8,4.2h6.8c-0.9-1-1-4.8-1.1-5.9c-0.2-2.5-1-5.6-3.8-6.3v-0.1c2.6-1.1,4.3-3.7,4.1-6.6
	c0-5.3-4.6-7.4-9.2-7.4H40.9L40.9,43.1L40.9,43.1z M47.8,22.3h5.5c1.6-0.3,3.1,0.8,3.4,2.4c0,0.1,0,0.3,0,0.4c0.2,1.6-1,2.9-2.5,3.1
	c-0.2,0-0.4,0-0.7,0h-5.7L47.8,22.3L47.8,22.3z M79.3,24.1L79.3,24.1l3,9.2h-6L79.3,24.1z M66,43.1h7.1l1.7-4.7h9.2l1.6,4.7h7.2
	l-9.9-26.3h-7L66,43.1z M95,43.1h6.5V26.7h0.1l9.2,16.4h7.1V16.8h-6.5V33h-0.1l-9.2-16.2H95L95,43.1L95,43.1z M121,43.1h11.4
	c8,0,12.9-4.6,12.9-13.3c0-8.1-4.8-13-12.9-13H121V43.1z M127.9,22.7h3.3c4.7,0,7.3,2.3,7.3,7.1c0,5.3-2.1,7.3-7.3,7.4h-3.3V22.7z
	 M61.8,216l2.6-1.5l0.6-2.4l-2.6,1.5 M15.7,113.5h1.1l6,8.7h0v-8.7h1v10.3h-1.1l-6-8.7h0v8.7h-1L15.7,113.5L15.7,113.5z M26.8,113.5
	h7.1v0.8h-6.1v3.7h5.8v0.8h-5.8v4.1H34v0.8h-7.2L26.8,113.5L26.8,113.5z M36.4,113.5h1.1l2.3,9h0l2.5-9h1.2l2.5,9h0l2.4-9h1
	l-2.9,10.3h-1l-2.6-9.2h0l-2.6,9.2h-1.1L36.4,113.5z M61.8,119.5l-4.1-6h1.2l3.4,5.2l3.4-5.2h1.2l-4.1,6v4.2h-1L61.8,119.5
	L61.8,119.5z M72.6,123.1c2.5,0.4,4.8-1.3,5.2-3.8c0.4-2.5-1.3-4.8-3.8-5.2c-2.5-0.4-4.8,1.3-5.2,3.8c0,0.2-0.1,0.5-0.1,0.7
	c-0.3,2.2,1.3,4.2,3.4,4.5C72.3,123.1,72.5,123.1,72.6,123.1 M72.6,113.2c3-0.3,5.6,1.9,5.9,4.8c0.3,3-1.9,5.6-4.8,5.9
	c-3,0.3-5.6-1.9-5.9-4.8c0-0.2,0-0.3,0-0.5c-0.3-2.7,1.7-5.1,4.3-5.3C72.3,113.2,72.5,113.2,72.6,113.2 M81.2,118.3h3.7
	c1.1,0.1,2.1-0.7,2.2-1.8c0-0.1,0-0.1,0-0.2c0.1-1.1-0.7-2-1.8-2.1c-0.1,0-0.3,0-0.4,0h-3.7V118.3z M80.2,113.5h4.7
	c1.5-0.2,2.9,0.8,3.1,2.3c0,0.1,0,0.3,0,0.4c0.1,1.3-0.8,2.4-2,2.6v0c1.1,0.1,1.9,1.2,1.8,2.3c0,0,0,0,0,0c-0.1,0.9,0.1,1.8,0.5,2.6
	h-1.1c-0.2-0.5-0.3-1.1-0.3-1.6c-0.1-1.4-0.2-3-2.1-3h-3.7v4.6h-1L80.2,113.5L80.2,113.5z M91.3,113.5h1v5.5l6-5.5h1.3l-4.6,4.2
	l4.8,6h-1.3l-4.3-5.4l-2,1.8v3.5h-1L91.3,113.5L91.3,113.5z"/>
</svg>
