<?xml version="1.0" encoding="utf-8"?>
<!-- Generator: Adobe Illustrator 23.0.6, SVG Export Plug-In . SVG Version: 6.00 Build 0)  -->
<svg version="1.1" id="Layer_1" xmlns="http://www.w3.org/2000/svg" xmlns:xlink="http://www.w3.org/1999/xlink" x="0px" y="0px"
	 viewBox="0 0 568 148" style="enable-background:new 0 0 568 148;" xml:space="preserve">
<style type="text/css">
	.st0{fill-rule:evenodd;clip-rule:evenodd;fill:#FFFFFF;}
</style>
<path class="st0" d="M160.7,36.2H183V38c-1.7-0.1-3.4,0.1-5,0.7c-0.9,0.5-1.5,1.4-1.7,2.5c-0.4,2.8-0.5,5.6-0.4,8.4v5.5
	c-0.5-0.1-1.1-0.2-1.6-0.2c-2.7,0.2-5.3,0.8-7.7,1.8c-3.8,1.5-7.9,2.4-12,2.4c-6.9,0.2-13.6-2.4-18.5-7.3
	c-4.9-4.9-7.6-11.6-7.4-18.5c-0.1-7.1,2.4-14,7-19.4c4.8-5.6,11.8-8.6,19.1-8.3c6.6-0.2,12.9,2.6,17.2,7.6c0.8-1.8,1.4-3.8,1.6-5.7
	h1.8v17.2h-1.8c-0.5-4.8-2.6-9.2-6.1-12.6c-3.2-3.1-7.6-4.7-12-4.6c-4.8,0-9.4,1.9-12.7,5.4c-3.6,3.6-5.4,10-5.4,19.2
	c0,9.2,1.7,15.7,5.2,19.5c3.3,3.7,8,5.8,13,5.7c2.5,0,5-0.5,7.2-1.6c1.9-0.8,3.4-2.2,4.4-3.9c0.9-1.8,1.3-3.8,1.2-5.9
	c0.1-1.9-0.1-3.7-0.6-5.5c-0.3-0.8-0.9-1.5-1.7-1.9c-1.4-0.4-2.8-0.6-4.2-0.5h-1.2L160.7,36.2L160.7,36.2z M188.9,32.1
	c-0.3-7.3,2.6-14.3,8-19.2c5.5-4.9,12.7-7.5,20-7.2c7.4-0.2,14.6,2.3,20.2,7.1c5.5,5,8.5,12.1,8.1,19.5c0.3,7.3-2.5,14.3-7.8,19.4
	c-11.8,9.9-29,9.9-40.7,0C191.5,46.7,188.6,39.5,188.9,32.1z M197.7,32.4c0,8.3,1.7,14.5,5,18.7s8.3,6.2,15,6.2
	c5.3,0.2,10.5-2.1,13.8-6.2c3.4-4.2,5.1-10.4,5.1-18.6c0-8-1.7-14.2-5-18.4c-7.3-8-19.7-8.6-27.7-1.3c-0.4,0.4-0.8,0.8-1.2,1.2
	C199.3,18,197.7,24.2,197.7,32.4L197.7,32.4z M296,43.1l-0.4,15.2h-44.1v-1.8h1.5c1.6,0.1,3.2-0.1,4.6-0.8c0.9-0.6,1.5-1.6,1.6-2.6
	c0.3-2.7,0.4-5.5,0.4-8.2V19.5c0.1-2.7,0-5.3-0.4-8c-0.1-1-0.7-1.9-1.5-2.5c-1.6-0.6-3.4-0.8-5.1-0.7h-1.1V6.6h24.9v1.8h-2.3
	c-1.7-0.1-3.4,0.1-5,0.6c-0.9,0.5-1.4,1.4-1.6,2.3c-0.4,2.7-0.5,5.4-0.4,8.2v27c-0.1,2.3,0,4.7,0.3,7c0.2,0.9,0.8,1.7,1.7,2.2
	c1.9,0.7,3.9,0.9,5.8,0.8h3.9c2.4,0.1,4.8-0.2,7.1-0.8c1.8-0.8,3.3-2,4.4-3.7c1.8-2.7,3.1-5.8,3.8-8.9H296z M298.5,7l8.5-0.4
	c7.1-0.3,11.9-0.5,14.4-0.5c7.7,0,13.7,1.2,18,3.5c4.1,2.1,7.4,5.4,9.6,9.5c2.2,4.3,3.3,9,3.2,13.8c0,3.5-0.5,7-1.7,10.4
	c-1,2.9-2.6,5.6-4.7,7.8c-2,2-4.3,3.7-7,4.7c-2.4,1-4.9,1.7-7.5,2c-3.3,0.3-6.7,0.4-10,0.4h-23v-1.8h2.1c1.6,0.1,3.2-0.1,4.6-0.8
	c0.9-0.6,1.5-1.6,1.6-2.6c0.3-2.7,0.5-5.5,0.4-8.2V19.9c0.1-2.7,0-5.3-0.4-8c-0.1-1-0.7-1.9-1.5-2.5c-1.6-0.6-3.4-0.8-5.1-0.7h-1.5
	V7L298.5,7z M314.5,8.1v34.5c0,5.1,0.1,8.4,0.3,9.9c0.1,1.2,0.7,2.4,1.7,3.1c1.9,0.8,4,1.1,6.1,0.9c3.8,0.1,7.6-0.5,11.1-1.9
	c3.2-1.5,5.8-4.1,7.3-7.3c2.1-4.3,3.1-9.1,2.9-13.8c0.1-4-0.5-7.9-1.7-11.7c-1-3.1-2.6-6-4.9-8.4c-1.9-2-4.4-3.5-7-4.4
	c-3.2-0.9-6.6-1.2-9.9-1.2C318.4,7.9,316.5,8,314.5,8.1L314.5,8.1z M422.4,43.1l-0.4,15.2H378v-1.8h1.5c1.6,0.1,3.2-0.1,4.6-0.8
	c0.9-0.6,1.5-1.6,1.6-2.6c0.3-2.7,0.4-5.5,0.4-8.2V19.5c0.1-2.7,0-5.3-0.4-8c-0.1-1-0.7-1.9-1.5-2.5c-1.6-0.6-3.4-0.8-5.1-0.7H378
	V6.6h24.9v1.8h-2.3c-1.7-0.1-3.4,0.1-5,0.6c-0.9,0.5-1.4,1.4-1.6,2.3c-0.4,2.7-0.5,5.4-0.4,8.2v27c-0.1,2.3,0,4.7,0.3,7
	c0.2,0.9,0.8,1.7,1.7,2.2c1.9,0.7,3.9,0.9,5.8,0.8h3.9c2.4,0.1,4.8-0.2,7.1-0.8c1.8-0.8,3.3-2,4.4-3.7c1.8-2.7,3.1-5.8,3.8-8.9
	H422.4L422.4,43.1z M467.8,42.2h1.8l-1.1,16.1h-42.9v-1.8h1.1c1.7,0.2,3.5-0.2,5-1c0.7-0.7,1.3-1.6,1.4-2.6c0.3-2.7,0.4-5.4,0.3-8.1
	V19.5c0.1-2.6,0-5.2-0.3-7.8c-0.1-1-0.6-2-1.5-2.6c-1.6-0.6-3.2-0.9-4.9-0.7V6.6h37.1l1.2,12.9h-1.8c-0.5-2.7-1.5-5.4-3-7.7
	c-1-1.4-2.5-2.4-4.2-2.9c-2.6-0.5-5.2-0.7-7.9-0.6h-7.2V30h5.5c1.8,0.1,3.6-0.1,5.3-0.7c0.9-0.3,1.6-1,2-2c0.4-1.7,0.6-3.4,0.5-5.1
	h1.8V40h-1.8c0.1-1.9-0.1-3.9-0.7-5.8c-0.4-0.9-1.2-1.6-2.1-1.9c-1.5-0.4-3.1-0.5-4.7-0.4h-5.7v12.2c0,6.1,0.4,9.7,1.2,10.8
	c0.8,1.1,2.9,1.6,6.4,1.6h3.9c2.3,0.1,4.6-0.3,6.7-1c2-0.9,3.8-2.4,5-4.3C465.9,48.4,467.1,45.4,467.8,42.2L467.8,42.2z M505.8,39.2
	h-19.7l-1.3,3.3c-1.4,2.9-2.5,6.1-3,9.3c-0.1,1.4,0.5,2.7,1.6,3.5c1.2,0.8,2.6,1.2,4.1,1.2v1.8h-15.4v-1.8c1.9-0.2,3.8-1,5.1-2.4
	c1.7-2.4,3.1-5.1,4.1-7.9c0.1-0.4,0.7-1.9,1.8-4.4l15.1-35.8h1.5l17.3,41l2.4,5.4c0.5,1.1,1.2,2.1,2.2,2.9c1.2,0.8,2.6,1.3,4.1,1.3
	v1.8h-20.4v-1.8c1.7,0.1,3.4-0.1,5.1-0.5c0.9-0.4,1.4-1.3,1.3-2.2c-0.4-1.7-1-3.4-1.8-5L505.8,39.2z M505.2,37.5l-9.2-22l-9.1,22
	H505.2L505.2,37.5z M567.6,6.6l0.4,12.9h-1.8c-0.2-2.5-1.1-4.9-2.4-7c-0.9-1.5-2.2-2.7-3.9-3.4c-2.2-0.6-4.5-0.8-6.8-0.7h-10.1v21.9
	h4.9c3.1,0,5.2-0.5,6.3-1.6s1.5-3.2,1.5-6.3h1.9v18.2h-1.9c0.1-1.8-0.2-3.5-0.7-5.2c-0.3-1.1-1-2-2-2.6c-1.6-0.6-3.4-0.8-5.1-0.7
	h-4.9v12.8c-0.1,2.7,0,5.3,0.3,8c0.1,1.1,0.7,2.1,1.5,2.8c1.5,0.7,3.1,1.1,4.8,0.9h1.8v1.8h-24.1v-1.8h1.6c1.6,0.1,3.2-0.1,4.6-0.8
	c0.9-0.6,1.5-1.6,1.6-2.6c0.3-2.7,0.4-5.5,0.4-8.2V19.5c0.1-2.7,0-5.3-0.4-8c-0.1-1-0.7-1.9-1.5-2.5c-1.6-0.6-3.4-0.8-5.1-0.7h-0.9
	V6.6L567.6,6.6L567.6,6.6z M167.4,119.9h-26l-1.8,4.3c-2.6,6.2-3.9,10.3-3.9,12.2c-0.1,1.8,0.7,3.5,2.1,4.6c1.6,1.1,3.5,1.7,5.4,1.6
	v2.3h-20.3v-2.3c2.6-0.3,4.9-1.4,6.8-3.2c2.3-3.2,4.1-6.7,5.3-10.5c0.2-0.5,1-2.4,2.4-5.8L157.2,76h2L182,130l3.1,7.1
	c0.6,1.5,1.6,2.8,2.8,3.8c1.6,1.1,3.5,1.7,5.4,1.7v2.3h-26.9v-2.3c2.3,0.1,4.5-0.1,6.7-0.7c1.2-0.5,1.9-1.7,1.7-2.9
	c-0.5-2.3-1.3-4.5-2.3-6.6L167.4,119.9z M166.5,117.6l-12.1-29l-12.1,29H166.5z M257.2,146.6h-2.3l-20.8-56.1l-18.2,56.1h-2.4
	l-16.5-53c-1.5-4.8-2.5-8-3.2-9.6c-0.5-1.4-1.4-2.6-2.6-3.5c-1.6-0.9-3.4-1.3-5.3-1.3v-2.3h25.7v2.3c-2.1-0.1-4.1,0.4-6,1.3
	c-0.9,0.7-1.4,1.8-1.3,2.9c0.4,2.9,1.1,5.7,2.1,8.5l12.2,39.6l17.9-54.6h2.8l20.1,54.6l10.4-36.1c1-3.1,1.7-6.3,2.1-9.6
	c0-4.4-2.4-6.6-7.1-6.6v-2.3h18.7v2.3c-2.4,0-4.7,1.1-6.2,3c-1.3,1.8-3,6.2-5.1,13.1L257.2,146.6z M320.7,119.9h-26l-1.8,4.3
	c-2.6,6.2-3.9,10.3-3.9,12.2c-0.1,1.8,0.7,3.5,2.1,4.6c1.6,1.1,3.5,1.7,5.4,1.6v2.3h-20.3v-2.3c2.6-0.3,4.9-1.4,6.8-3.2
	c2.3-3.2,4.1-6.7,5.3-10.5c0.2-0.5,1-2.4,2.4-5.8L310.6,76h2l22.8,54.1l3.1,7.1c0.6,1.5,1.6,2.8,2.8,3.8c1.6,1.1,3.5,1.7,5.4,1.7
	v2.3h-26.9v-2.3c2.3,0.1,4.5-0.1,6.7-0.7c1.2-0.5,1.9-1.7,1.7-2.9c-0.5-2.3-1.3-4.5-2.3-6.6L320.7,119.9z M319.8,117.6l-12.1-29
	l-12,29H319.8L319.8,117.6z M421.1,145h-18.4c-3.3-2.3-8.3-8.2-15-17.9c-2.2-3.1-4.4-6-6.7-8.9c-1.4-1.9-3-3.6-4.8-5.2
	c-1.2-0.7-2.7-1-4.1-0.9h-2.7v15.1c-0.1,3.5,0,7,0.4,10.5c0.1,1.5,0.9,2.8,2,3.7c1.9,1,4.1,1.4,6.3,1.2h3.3v2.3h-32.7v-2.3h2.2
	c2.1,0.2,4.2-0.2,6.1-1.1c1.2-0.8,1.9-2,2.1-3.4c0.4-3.6,0.6-7.2,0.5-10.9V93.9c0.1-3.5-0.1-7-0.5-10.5c-0.2-1.3-0.9-2.5-2-3.3
	c-2.2-0.8-4.5-1.1-6.8-0.9h-1.2v-2.3l9.8-0.5c6.5-0.3,11.7-0.5,15.5-0.5c5.4-0.1,10.7,0.5,15.9,1.8c3.8,1,7.2,3.1,9.9,5.9
	c2.5,2.7,3.8,6.2,3.8,9.8c0.1,4.3-1.7,8.5-4.9,11.4c-4.1,3.5-9.2,5.5-14.5,5.9c2.9,1.4,7.5,6.3,13.8,14.8
	c5.2,6.9,9.2,11.5,12.2,13.6c3.1,2.2,6.7,3.4,10.5,3.4L421.1,145L421.1,145z M369.5,109.8c2.5-0.1,5.1-0.2,7.8-0.3
	c2.4-0.1,4.7-0.5,7-1.1c3.6-0.9,6.5-3.6,7.7-7.2c0.8-2.2,1.1-4.6,1.1-6.9c0.2-4.1-1.1-8.2-3.6-11.5c-2.4-2.9-7.6-4.3-15.7-4.3
	c-1.2,0-2.7,0.1-4.3,0.2L369.5,109.8L369.5,109.8z M423.8,77.5l11.2-0.5c9.4-0.5,15.7-0.7,19-0.7c10.1,0,18.1,1.5,23.7,4.6
	c5.4,2.8,9.8,7.2,12.7,12.5c2.9,5.6,4.3,11.9,4.2,18.2c0.1,4.7-0.7,9.3-2.3,13.7c-1.3,3.8-3.4,7.3-6.2,10.3
	c-2.6,2.7-5.7,4.8-9.2,6.2c-3.2,1.3-6.5,2.2-9.9,2.7c-4.4,0.4-8.8,0.6-13.2,0.5h-30.3v-2.3h2.8c2.1,0.2,4.2-0.2,6.1-1.1
	c1.2-0.8,2-2,2.2-3.4c0.4-3.6,0.6-7.2,0.5-10.9V94.4c0.1-3.5-0.1-7-0.5-10.5c-0.1-1.3-0.9-2.5-2-3.3c-2.2-0.8-4.4-1.1-6.7-0.9h-2
	L423.8,77.5L423.8,77.5z M444.8,78.9v45.5c0,6.7,0.1,11.1,0.4,13c0.1,1.6,0.9,3.1,2.3,4.1c2.5,1,5.3,1.4,8,1.2
	c5,0.2,10-0.7,14.7-2.4c4.2-2,7.6-5.4,9.6-9.6c2.8-5.7,4.1-11.9,3.9-18.2c0.1-5.2-0.7-10.4-2.2-15.4c-1.3-4.1-3.5-7.9-6.4-11
	c-2.6-2.7-5.7-4.7-9.3-5.8c-4.3-1.1-8.7-1.6-13.1-1.5C450,78.6,447.5,78.7,444.8,78.9L444.8,78.9z M505.8,144.3v-21.9h2.5
	c2.9,14.3,9.6,21.4,20.3,21.4c4.1,0.3,8.2-1.2,11.2-4.1c2.5-2.4,3.9-5.7,4-9.2c0.1-3.2-1.2-6.3-3.5-8.6c-3.8-3.2-8.1-5.6-12.7-7.3
	c-4.3-1.7-8.4-3.8-12.4-6.1c-2.7-1.7-5-4.1-6.5-6.9c-1.5-2.7-2.4-5.8-2.3-9c-0.1-4.6,1.7-9,5.1-12.1c3.5-3.3,8.1-5,12.8-4.8
	c2.8,0,5.6,0.5,8.2,1.4c3,1.3,5.7,3.3,7.9,5.8c1.5-1.7,2.4-3.7,2.6-6h2.2v17.8h-2.2c-1-4.7-3.3-8.9-6.8-12.3
	c-3-2.9-7.1-4.5-11.3-4.5c-3.3-0.3-6.6,0.9-9,3.3c-1.8,2-2.8,4.5-2.8,7.2c0,3.1,1.3,6,3.6,8c3.8,3.1,8.1,5.6,12.8,7.4
	c4.4,1.9,8.7,4,12.8,6.3c2.7,1.6,4.9,3.9,6.4,6.6c1.7,3,2.5,6.3,2.4,9.7c0.2,5.4-1.9,10.5-5.8,14.2c-4.3,3.8-9.9,5.7-15.6,5.5
	c-7.2,0.1-14.1-3-18.8-8.6c-1.3,2-2.1,4.3-2.5,6.6L505.8,144.3L505.8,144.3z M1.3,0h99.4v148H0v-8.8c3.5-1.2,6.9-2.8,10.1-4.7
	c3.8-2.5,17.1-15.1,21.2-21.7c1.8-3.2,4.1-6.2,6.6-8.8c1.9-2.2,0.6-6,1.9-7.2s3.5-3.1,3.5-3.1s1.6-12.6,1-16.1
	c-0.5-1.9-0.3-3.9,0.6-5.7c0.6-1.9,1.9-10.1,1.9-10.1c-1.4,3.7-3.2,7.1-5.4,10.4c-2.8,3.8-2.5,3.8-2.5,5.7s1.6,2.8-0.6,6.6
	c-1.1,1.7-2,3.5-2.8,5.4c0,0,1.6,5.3-1,9.1c-6.7,8.6-14,16.7-21.8,24.3c-3.5,3-8,4.5-12.7,4.4C0,124.7,0.9,0,1.3,0L1.3,0z M8,49.5
	h7.8c0,0,7-3.6,7-7.4c3.5,0,7-0.2,10.4-0.6c0,0,6-2.2,6-4.1c1.9,0.2,3.8,0.1,5.7-0.3c1-1,1.7-2.4,1.9-3.8c2.8,0.3,5.7,1.3,7.9-3.5
	c0,0,7.9-5.7,8.5-7.9c1,2.7,1.3,5.6,0.9,8.5c-0.3,2.8-1.3,10.4-0.3,11.3s-0.3,8.5,2.2,9.5l2.5,0.9l1.3,14.2l2.5,1.9
	c0.2,2,1.6,3.7,3.5,4.4l3.5,1.6c0,0-1.9,10.7-0.3,12.9c0,5-1.6,6.6-0.6,6.9S80,97,83.2,97h3.2c0,0-2.2,14.8-6.6,20.5
	s-2.2,6.3-5.7,7.9c-2.5,0.9-5.3,1.2-7.9,0.6c0,0,1.9,5,0.6,6.3s-7.6,2.2-7.6,2.2l-3.2,0.6c-1.9,0.5-3.7,1.4-5.1,2.8
	c0,0-1.3,2.5,2.5,2.2s39.9,0,39.9,0V7.9L7.9,7.5L8,49.5z"/>
</svg>
