<svg xmlns="http://www.w3.org/2000/svg" width="auto" height="30" viewBox="0 0 200 114">
  <defs>
    <style>
      .cls-1 {
        fill: #fff;
        fill-rule: evenodd;
      }
    </style>
  </defs>
  <path class="cls-1" d="M806,1292.6v8.88C874.689,1297.4,823.605,1295.27,806,1292.6Zm0,14.68V1316l0.574,0.15C858.9,1311.31,843.884,1309.55,806,1307.28Zm0-77.28v28.69c43.068-1.46,43.281-3.9,20.946-6.87l4.017-4.88c27.575,4.24,25.827,11.17,6.026,14.65,6.635,2.33,30.153,6.66,1.721,15.22,4.627,1.25,30.719,7.72-1.721,13.49,5.139,2.33,32.411,5.66,1.147,14.07,8.1,1.33,28.9,5.77,1.435,14.65,10.383,1.08,11.557,1.45,14.346,6.32V1344h12.625V1230H806Zm0,49.1v8.91C818.921,1285.46,877.9,1284.43,806,1279.1Zm0-15.17v9.43C846.376,1271.19,860.017,1268.37,806,1263.93Zm75.37-3.53h-6.889v-1.36h15.244v1.36h-6.887v18.42H881.37V1260.4Zm12.083-1.36h1.468v9.16h12.648v-9.16h1.468v19.78h-1.468v-9.27H894.921v9.27h-1.468v-19.78Zm20.722,0h14.058v1.36h-12.59v7.77h11.32v1.35h-11.32v7.94h12.732v1.36h-14.2v-19.78ZM875.5,1290.19h6.558l3.9,12.96,4.319-13.03h5.343l4.318,13.03,3.9-12.96h6.431l-7.487,22.57h-5.407l-4.479-12.9-4.511,12.9h-5.407Zm34.777,11.02v-0.09c0-6.73,4.813-12.06,11.63-12.06,7.924,0,11.587,5.84,11.587,12.62,0,0.51,0,1.11-.042,1.66H918.034a4.758,4.758,0,0,0,4.983,3.79,6.882,6.882,0,0,0,5.114-2.34l4.471,3.71a12.047,12.047,0,0,1-9.967,4.69C915.393,1313.19,910.28,1308.33,910.28,1301.21Zm15.676-2.01c-0.3-2.55-1.83-4.18-4.046-4.18-2.131,0-3.578,1.63-4,4.18h8.051Zm11.943-9.01h11.486c2.816,0,4.8.7,6.111,1.98a5.063,5.063,0,0,1,1.439,3.65v0.07a5.181,5.181,0,0,1-3.455,4.99c2.72,0.9,4.448,2.44,4.448,5.48v0.06c0,3.84-3.135,6.18-8.479,6.18H937.9v-22.41Zm12.925,6.91c0-1.25-.99-1.92-2.814-1.92h-4.064v3.94h3.9c1.888,0,2.974-.64,2.974-1.95v-0.07Zm-2.143,6.37h-4.735v4.13h4.8c1.919,0,2.976-.73,2.976-2.04v-0.07C951.721,1304.28,950.76,1303.47,948.681,1303.47Zm14.031-13.28H974.2c2.816,0,4.8.7,6.111,1.98a5.063,5.063,0,0,1,1.439,3.65v0.07a5.181,5.181,0,0,1-3.455,4.99c2.721,0.9,4.446,2.44,4.446,5.48v0.06c0,3.84-3.134,6.18-8.477,6.18h-11.55v-22.41Zm12.925,6.91c0-1.25-.99-1.92-2.814-1.92h-4.064v3.94h3.9c1.886,0,2.974-.64,2.974-1.95v-0.07Zm-2.143,6.37h-4.735v4.13h4.8c1.919,0,2.976-.73,2.976-2.04v-0.07C976.534,1304.28,975.575,1303.47,973.494,1303.47Zm17.787,0.74-8.542-14.02h7.072l4.606,8.16,4.639-8.16H1006l-8.514,13.93v8.48h-6.205v-8.39Zm-105.645,17.97h1.412l9.2,19.92h-1.608l-2.512-5.54H880.469l-2.512,5.54h-1.524Zm5.872,13.05-5.194-11.44-5.224,11.44h10.418Zm4.628-12.91h1.638l6.211,17.6,5.788-17.66H910.9l5.788,17.66,6.21-17.6h1.524l-7.17,19.92h-1.185l-5.788-17.18-5.788,17.18h-1.186Zm37.856-.13H935.4l9.2,19.92H943l-2.513-5.54h-11.66l-2.512,5.54h-1.524Zm5.872,13.06-5.194-11.45-5.224,11.45h10.418ZM948,1322.32h8.3a7.766,7.766,0,0,1,5.562,1.95,5.208,5.208,0,0,1,1.5,3.67V1328c0,3.3-2.456,5.2-5.788,5.65l6.522,8.45h-1.864l-6.295-8.2h-6.465v8.2H948v-19.78Zm8.131,10.26c3.3,0,5.758-1.67,5.758-4.52V1328c0-2.66-2.087-4.32-5.673-4.32h-6.748v8.9h6.663Zm11.594-10.26h6.579c6.21,0,10.5,4.27,10.5,9.83v0.06c0,5.56-4.292,9.89-10.5,9.89h-6.579v-19.78Zm1.469,1.36v17.06h5.11c5.5,0,8.976-3.76,8.976-8.48v-0.05c0-4.69-3.472-8.53-8.976-8.53H969.2Zm18.32,15.54,0.96-1.11a9.582,9.582,0,0,0,7.087,2.94c2.963,0,5-1.67,5-3.92v-0.06c0-2.09-1.1-3.31-5.588-4.21-4.742-.96-6.665-2.57-6.665-5.57v-0.05c0-2.94,2.684-5.2,6.353-5.2a9.822,9.822,0,0,1,6.77,2.4l-0.93,1.16a8.5,8.5,0,0,0-5.9-2.24c-2.907,0-4.826,1.67-4.826,3.73v0.06c0,2.09,1.073,3.36,5.756,4.32,4.576,0.94,6.5,2.57,6.5,5.46v0.05c0,3.19-2.739,5.4-6.551,5.4A11.281,11.281,0,0,1,987.517,1339.22Z" transform="translate(-806 -1230)"/>
</svg>
